<svg width="1200" height="630" viewBox="0 0 1200 630" xmlns="http://www.w3.org/2000/svg" role="img" aria-label="Dern Industries">
  <defs>
    <radialGradient id="glow" cx="50%" cy="42%" r="60%">
      <stop offset="0%" stop-color="#161612"/>
      <stop offset="100%" stop-color="#050506"/>
    </radialGradient>
    <pattern id="grid" width="40" height="40" patternUnits="userSpaceOnUse">
      <path d="M40 0 H0 V40" fill="none" stroke="#1a1a1f" stroke-width="1"/>
    </pattern>
  </defs>
  <rect width="1200" height="630" fill="url(#glow)"/>
  <rect width="1200" height="630" fill="url(#grid)"/>

  <!-- corner brackets -->
  <g stroke="#ffb020" stroke-width="3" fill="none" opacity="0.8">
    <path d="M40 40 H100 M40 40 V100"/>
    <path d="M1160 40 H1100 M1160 40 V100"/>
    <path d="M40 590 H100 M40 590 V530"/>
    <path d="M1160 590 H1100 M1160 590 V530"/>
  </g>

  <!-- monogram -->
  <g transform="translate(150 175)" stroke="#f5f5f4" stroke-linecap="square" fill="none">
    <path d="M40 20 H110 A90 90 0 0 1 110 200 H40 Z" stroke-width="16"/>
    <path d="M66 48 H105 A62 62 0 0 1 105 172 H66 Z" stroke-width="9"/>
    <path d="M86 74 V146" stroke-width="9"/>
  </g>

  <!-- wordmark -->
  <text x="470" y="300" font-family="Orbitron, sans-serif" font-size="120" font-weight="800" fill="#f5f5f4" letter-spacing="8">DERN</text>
  <text x="474" y="360" font-family="'Share Tech Mono', monospace" font-size="34" fill="#ffb020" letter-spacing="18">INDUSTRIES</text>
  <text x="474" y="430" font-family="'Share Tech Mono', monospace" font-size="22" fill="#9a9a97" letter-spacing="4">// A HOLDING COMPANY FOR THINGS WORTH BUILDING</text>
</svg>
